# File created by Blade
# Date/Time:  Tue Jan 27 19:54:32 2015
#---------------------------------------------------------
:version 1.10
:name HOM
:units
  mass 1.0
  length 1.000000
  angle deg
:documentation
     Acclaim Skeleton File
:root
   axis xyz
   order TX TY TZ RX RY RZ
   position 0.000000 0.000000 0.000000
   orientation 0 0 0
:bonedata
   begin
      id 1
      name Spine_dum
      direction 0.000000 1.000000 0.000000
      length 6.116652
      axis 0.0 0.0 0.0 xyz
   end
   begin
      id 2
      name LeftUpLeg_dum
      direction 1.000000 0.000000 0.000000
      length 4.711765
      axis 0.0 0.0 0.0 xyz
   end
   begin
      id 3
      name RightUpLeg_dum
      direction -1.000000 0.000000 0.000000
      length 4.711765
      axis 0.0 0.0 0.0 xyz
   end
   begin
      id 4
      name Spine
      direction 0.000000 1.000000 0.000000
      length 0.000000
      axis 0.0 0.0 0.0 xyz
      dof rx ry rz
   end
   begin
      id 5
      name Spine_dum1
      direction 0.000000 1.000000 0.000000
      length 15.225563
      axis 0.0 0.0 0.0 xyz
   end
   begin
      id 6
      name Spine_dum2
      direction 0.000000 1.000000 0.000000
      length 8.977654
      axis 0.0 0.0 0.0 xyz
   end
   begin
      id 7
      name Spine_dum3
      direction 0.000000 1.000000 0.000000
      length 8.977654
      axis 0.0 0.0 0.0 xyz
   end
   begin
      id 8
      name Head
      direction 0.000000 1.000000 0.000000
      length 4.527550
      axis 0.0 0.0 0.0 xyz
      dof rx ry rz
   end
   begin
      id 9
      name LeftShoulder
      direction 1.000000 0.000000 0.000000
      length 7.110130
      axis 0.0 0.0 -90.0 xyz
      dof rx ry rz
   end
   begin
      id 10
      name LeftArm
      direction 1.000000 0.000000 0.000000
      length 10.398341
      axis 0.0 0.0 -90.0 xyz
      dof rx ry rz
   end
   begin
      id 11
      name LeftForeArm
      direction 1.000000 0.000000 0.000000
      length 8.888997
      axis 0.0 0.0 -90.0 xyz
      dof ry rz rx
   end
   begin
      id 12
      name LeftHand
      direction 0.000000 0.000000 0.000000
      length 0.000000
      axis 0.0 0.0 -90.0 xyz
      dof rx ry rz
   end
   begin
      id 13
      name LeftHand_dum1
      direction 0.000000 0.000000 0.000000
      length 0.000000
      axis 0.0 0.0 -90.0 xyz
   end
   begin
      id 14
      name LeftHand_dum2
      direction 1.000000 0.000000 0.000000
      length 3.937000
      axis 0.0 0.0 -90.0 xyz
   end
   begin
      id 15
      name LeftHandThumb1
      direction 0.000000 0.000000 1.000000
      length 3.937000
      axis 0.0 0.0 -90.0 xyz
      dof rx rz ry
   end
   begin
      id 16
      name RightShoulder
      direction -1.000000 0.000000 0.000000
      length 7.110130
      axis 0.0 0.0 90.0 xyz
      dof rx ry rz
   end
   begin
      id 17
      name RightArm
      direction -1.000000 0.000000 0.000000
      length 10.398341
      axis 0.0 0.0 90.0 xyz
      dof rx ry rz
   end
   begin
      id 18
      name RightForeArm
      direction -1.000000 0.000000 0.000000
      length 8.888997
      axis 0.0 0.0 90.0 xyz
      dof ry rz rx
   end
   begin
      id 19
      name RightHand
      direction 0.000000 0.000000 0.000000
      length 0.000000
      axis 0.0 0.0 90.0 xyz
      dof rx ry rz
   end
   begin
      id 20
      name RightHand_dum1
      direction 0.000000 0.000000 0.000000
      length 0.000000
      axis 0.0 0.0 90.0 xyz
   end
   begin
      id 21
      name RightHand_dum2
      direction -1.000000 0.000000 0.000000
      length 3.937000
      axis 0.0 0.0 90.0 xyz
   end
   begin
      id 22
      name RightHandThumb1
      direction 0.000000 0.000000 1.000000
      length 3.937000
      axis 0.0 0.0 90.0 xyz
      dof rx rz ry
   end
   begin
      id 23
      name LeftUpLeg
      direction 0.000000 -1.000000 0.000000
      length 15.510451
      axis 0.0 0.0 0.0 xyz
      dof rx ry rz
   end
   begin
      id 24
      name LeftLeg
      direction 0.000000 -1.000000 0.000000
      length 14.858061
      axis 0.0 0.0 0.0 xyz
      dof rx ry rz
   end
   begin
      id 25
      name LeftFoot
      direction 0.000000 -0.258819 0.965926
      length 5.128852
      axis 15.0 0.0 0.0 xyz
      dof rx ry rz
   end
   begin
      id 26
      name LeftToeBase
      direction 0.000000 0.000000 1.000000
      length 2.952750
      axis 0.0 0.0 0.0 xyz
      dof rx ry rz
   end
   begin
      id 27
      name RightUpLeg
      direction 0.000000 -1.000000 0.000000
      length 15.510451
      axis 0.0 0.0 0.0 xyz
      dof rx ry rz
   end
   begin
      id 28
      name RightLeg
      direction 0.000000 -1.000000 0.000000
      length 14.858061
      axis 0.0 0.0 0.0 xyz
      dof rx ry rz
   end
   begin
      id 29
      name RightFoot
      direction 0.000000 -0.258819 0.965926
      length 5.128852
      axis 15.0 0.0 0.0 xyz
      dof rx ry rz
   end
   begin
      id 30
      name RightToeBase
      direction 0.000000 0.000000 1.000000
      length 2.952750
      axis 0.0 0.0 0.0 xyz
      dof rx ry rz
   end
:hierarchy
   begin
      root Spine_dum LeftUpLeg_dum RightUpLeg_dum
      Spine_dum Spine
      LeftUpLeg_dum LeftUpLeg
      RightUpLeg_dum RightUpLeg
      Spine Spine_dum1 Spine_dum2 Spine_dum3
      Spine_dum1 Head
      Spine_dum2 LeftShoulder
      Spine_dum3 RightShoulder
      LeftShoulder LeftArm
      LeftArm LeftForeArm
      LeftForeArm LeftHand
      LeftHand LeftHand_dum1 LeftHand_dum2
      LeftHand_dum1 LeftHandThumb1
      RightShoulder RightArm
      RightArm RightForeArm
      RightForeArm RightHand
      RightHand RightHand_dum1 RightHand_dum2
      RightHand_dum1 RightHandThumb1
      LeftUpLeg LeftLeg
      LeftLeg LeftFoot
      LeftFoot LeftToeBase
      RightUpLeg RightLeg
      RightLeg RightFoot
      RightFoot RightToeBase
   end

# File created by Blade
# Date/Time:  Tue Jan 27 19:54:25 2015
# Frame Rate: 120.000 fps
#------------------------------------------------------
:FULLY-SPECIFIED
:DEGREES
1049
root 5.651349 32.699880 0.461813 -11.709158 -4.460079 -9.263371
Spine 10.581336 10.012450 8.310889
Head 8.486345 -9.497239 3.439644
LeftShoulder -13.675521 0.557960 29.383128
LeftArm -9.165302 29.935483 -89.106199
LeftForeArm 1.038614 0.000000 88.177966
LeftHand 23.941625 -0.000000 40.391619
LeftHandThumb1 -26.253704 0.000000 33.147579
RightShoulder -18.681866 -17.547614 -20.761265
RightArm 9.189052 -28.584338 87.266003
RightForeArm -17.106635 0.000000 24.721832
RightHand 16.500475 -0.000000 9.309900
RightHandThumb1 -24.326973 -0.000000 -32.862282
LeftUpLeg 16.516533 3.299167 2.174781
LeftLeg 4.318099 -0.000000 -0.000000
LeftFoot -20.863417 15.466488 -16.417692
LeftToeBase 19.327127 -0.000000 -0.000000
RightUpLeg -70.754131 8.284046 17.591884
RightLeg 103.185521 -0.000000 -0.000000
RightFoot 17.810817 -33.187758 17.824795
RightToeBase 12.587724 -0.000000 -0.000000
1050
root 5.652144 32.702593 0.455704 -11.791151 -4.385341 -9.282604
Spine 10.637404 9.945265 8.334323
Head 8.445761 -9.532303 3.482688
LeftShoulder -13.680792 0.578645 29.400361
LeftArm -9.098955 30.029294 -89.132289
LeftForeArm 1.071830 -0.000000 88.142798
LeftHand 23.885714 -0.000000 40.479693
LeftHandThumb1 -26.253704 0.000000 33.147579
RightShoulder -18.657418 -17.533302 -20.759555
RightArm 9.183482 -28.580197 87.277096
RightForeArm -17.013592 -0.000000 24.733401
RightHand 16.461457 -0.000000 9.101200
RightHandThumb1 -24.326973 -0.000000 -32.862282
LeftUpLeg 16.544048 3.390688 2.241605
LeftLeg 4.396794 -0.000000 -0.000000
LeftFoot -20.874322 15.267525 -16.446242
LeftToeBase 19.337721 -0.000000 -0.000000
RightUpLeg -70.713412 8.204055 17.602275
RightLeg 103.087244 -0.000000 -0.000000
RightFoot 17.814441 -33.187254 17.937417
RightToeBase 12.576812 -0.000000 -0.000000
1051
root 5.650868 32.705288 0.447738 -11.859367 -4.301837 -9.298253
Spine 10.681301 9.900010 8.345791
Head 8.413582 -9.568903 3.525683
LeftShoulder -13.646647 0.546482 29.420876
LeftArm -9.094017 30.117545 -89.152040
LeftForeArm 1.036121 -0.000000 88.130392
LeftHand 23.983359 -0.000000 40.392340
LeftHandThumb1 -26.253704 0.000000 33.147579
RightShoulder -18.673358 -17.557017 -20.741139
RightArm 9.214034 -28.582785 87.289638
RightForeArm -17.030325 -0.000000 24.731985
RightHand 16.468413 -0.000000 9.030480
RightHandThumb1 -24.326973 -0.000000 -32.862282
LeftUpLeg 16.541735 3.467572 2.304488
LeftLeg 4.474657 -0.000000 -0.000000
LeftFoot -20.839316 15.105462 -16.474045
LeftToeBase 19.446539 -0.000000 -0.000000
RightUpLeg -70.703834 8.137699 17.595215
RightLeg 102.984917 -0.000000 -0.000000
RightFoot 17.881154 -33.135593 17.913545
RightToeBase 11.812180 -0.000000 -0.000000
1052
root 5.649645 32.708474 0.440434 -11.928897 -4.219060 -9.315061
Spine 10.722750 9.854916 8.354879
Head 8.406941 -9.578155 3.577008
LeftShoulder -13.605295 0.540435 29.431846
LeftArm -9.075478 30.203413 -89.154163
LeftForeArm 1.039245 -0.000000 88.139674
LeftHand 24.088577 0.000000 40.346428
LeftHandThumb1 -26.253704 0.000000 33.147579
RightShoulder -18.685027 -17.584802 -20.717874
RightArm 9.244893 -28.575760 87.297607
RightForeArm -17.036377 -0.000000 24.735629
RightHand 16.465353 -0.000000 9.048615
RightHandThumb1 -24.326973 -0.000000 -32.862282
LeftUpLeg 16.544013 3.510622 2.353948
LeftLeg 4.559617 -0.000000 -0.000000
LeftFoot -20.817931 14.991903 -16.426388
LeftToeBase 19.408454 -0.000000 -0.000000
RightUpLeg -70.705074 8.083046 17.573993
RightLeg 102.861099 -0.000000 -0.000000
RightFoot 17.829678 -33.145270 18.144019
RightToeBase 12.501804 -0.000000 -0.000000
1053
root 5.648200 32.711199 0.433786 -11.998961 -4.145592 -9.347009
Spine 10.768931 9.820764 8.389405
Head 8.397656 -9.614714 3.616623
LeftShoulder -13.581004 0.617642 29.428521
LeftArm -8.938024 30.329179 -89.107357
LeftForeArm 1.027622 -0.000000 88.135742
LeftHand 24.155124 -0.000000 40.369408
LeftHandThumb1 -26.253704 0.000000 33.147579
RightShoulder -18.711259 -17.596514 -20.704926
RightArm 9.254836 -28.594861 87.310010
RightForeArm -17.058546 0.000000 24.736411
RightHand 16.426486 -0.000000 9.021553
RightHandThumb1 -24.326973 -0.000000 -32.862282
LeftUpLeg 16.552553 3.534475 2.407405
LeftLeg 4.645965 -0.000000 -0.000000
LeftFoot -20.824088 14.896988 -16.408088
LeftToeBase 19.309156 -0.000000 -0.000000
RightUpLeg -70.711055 8.037563 17.571801
RightLeg 102.711120 -0.000000 -0.000000
RightFoot 17.862114 -33.103972 18.118323
RightToeBase 12.755680 -0.000000 -0.000000
1054
root 5.646951 32.714464 0.426212 -12.075388 -4.066990 -9.386397
Spine 10.838518 9.780860 8.433329
Head 8.366971 -9.660094 3.636659
LeftShoulder -13.542015 0.628173 29.417168
LeftArm -8.883424 30.430623 -89.085601
LeftForeArm 1.049542 -0.000000 88.165444
LeftHand 24.140859 -0.000000 40.378293
LeftHandThumb1 -26.253704 0.000000 33.147579
RightShoulder -18.744322 -17.597293 -20.681136
RightArm 9.257132 -28.609228 87.305539
RightForeArm -17.058483 -0.000000 24.758407
RightHand 16.430728 0.000000 9.034828
RightHandThumb1 -24.326973 -0.000000 -32.862282
LeftUpLeg 16.557368 3.546421 2.466524
LeftLeg 4.729055 -0.000000 -0.000000
LeftFoot -20.802790 14.829121 -16.350915
LeftToeBase 19.351499 -0.000000 -0.000000
RightUpLeg -70.728266 7.993665 17.550001
RightLeg 102.549284 -0.000000 -0.000000
RightFoot 17.914355 -33.013681 18.068495
RightToeBase 12.297549 -0.000000 -0.000000
1055
root 5.642215 32.718576 0.420127 -12.156279 -3.975031 -9.458537
Spine 10.901179 9.677463 8.495947
Head 8.347921 -9.691911 3.669632
LeftShoulder -13.547856 0.614554 29.420431
LeftArm -8.880621 30.590777 -89.106914
LeftForeArm 1.376259 -0.000000 88.201554
LeftHand 23.631209 0.000000 40.764457
LeftHandThumb1 -26.253704 0.000000 33.147579
RightShoulder -18.733937 -17.598499 -20.663576
RightArm 9.272372 -28.628628 87.298623
RightForeArm -17.036166 -0.000000 24.769729
RightHand 16.447562 -0.000000 9.018918
RightHandThumb1 -24.326973 -0.000000 -32.862282
LeftUpLeg 16.557565 3.486824 2.546693
LeftLeg 4.846915 -0.000000 -0.000000
LeftFoot -20.850129 14.778970 -16.335146
LeftToeBase 19.403550 -0.000000 -0.000000
RightUpLeg -70.760888 7.950338 17.551344
RightLeg 102.353097 -0.000000 -0.000000
RightFoot 18.090042 -32.921291 17.954112
RightToeBase 12.460014 -0.000000 -0.000000
1056
root 5.638582 32.721505 0.412955 -12.228799 -3.901241 -9.508361
Spine 10.959495 9.618205 8.538597
Head 8.323277 -9.723415 3.723355
LeftShoulder -13.532303 0.567987 29.427949
LeftArm -8.909427 30.627473 -89.100276
LeftForeArm 1.125713 -0.000000 88.213861
LeftHand 24.125367 0.000000 40.206634
LeftHandThumb1 -26.253704 0.000000 33.147579
RightShoulder -18.742244 -17.625877 -20.630591
RightArm 9.298087 -28.643128 87.286416
RightForeArm -17.142272 0.000000 24.784141
RightHand 16.477877 -0.000000 9.222309
RightHandThumb1 -24.326973 -0.000000 -32.862282
LeftUpLeg 16.536481 3.410137 2.595341
LeftLeg 4.990410 -0.000000 -0.000000
LeftFoot -20.906962 14.751867 -16.361318
LeftToeBase 19.406540 -0.000000 -0.000000
RightUpLeg -70.844820 7.932622 17.497230
RightLeg 102.135760 -0.000000 -0.000000
RightFoot 18.268837 -32.875468 17.900345
RightToeBase 11.235778 -0.000000 -0.000000
1057
root 5.635726 32.725618 0.405963 -12.315949 -3.840263 -9.574726
Spine 11.036588 9.571847 8.612827
Head 8.319374 -9.744624 3.769234
LeftShoulder -13.529593 0.569049 29.421022
LeftArm -8.852202 30.791496 -89.113589
LeftForeArm 1.501121 -0.000000 88.233164
LeftHand 23.686935 -0.000000 40.649963
LeftHandThumb1 -26.253704 0.000000 33.147579
RightShoulder -18.740931 -17.618832 -20.599405
RightArm 9.296134 -28.667977 87.262645
RightForeArm -16.824743 -0.000000 24.787515
RightHand 16.384467 -0.000000 8.049338
RightHandThumb1 -24.326973 -0.000000 -32.862282
LeftUpLeg 16.537393 3.354541 2.669852
LeftLeg 5.125367 -0.000000 -0.000000
LeftFoot -20.960003 14.694514 -16.401429
LeftToeBase 19.416271 -0.000000 -0.000000
RightUpLeg -70.926764 7.927924 17.449288
RightLeg 101.869258 -0.000000 -0.000000
RightFoot 18.501217 -32.691676 17.837651
RightToeBase 11.521276 -0.000000 -0.000000
1058
root 5.629303 32.731370 0.401105 -12.420952 -3.791503 -9.657801
Spine 11.135073 9.527915 8.698914
Head 8.316456 -9.774441 3.827651
LeftShoulder -13.510962 0.557995 29.411184
LeftArm -8.838631 30.880399 -89.112487
LeftForeArm 1.574172 0.000000 88.266069
LeftHand 23.663326 -0.000000 40.666328
LeftHandThumb1 -26.253704 0.000000 33.147579
RightShoulder -18.746785 -17.608850 -20.561119
RightArm 9.282810 -28.679259 87.250507
RightForeArm -16.763458 -0.000000 24.795906
RightHand 16.403901 -0.000000 7.914940
RightHandThumb1 -24.326973 -0.000000 -32.862282
LeftUpLeg 16.561707 3.332469 2.782944
LeftLeg 5.269278 -0.000000 -0.000000
LeftFoot -21.007288 14.601462 -16.406385
LeftToeBase 19.378558 -0.000000 -0.000000
RightUpLeg -71.009930 7.942285 17.403473
RightLeg 101.551000 -0.000000 -0.000000
RightFoot 18.765206 -32.384240 17.761407
RightToeBase 13.122351 -0.000000 -0.000000
1059
root 5.621227 32.737574 0.397444 -12.531234 -3.754761 -9.744495
Spine 11.238565 9.505302 8.788455
Head 8.322708 -9.838057 3.882156
LeftShoulder -13.497345 0.560777 29.423470
LeftArm -8.786333 30.959513 -89.116294
LeftForeArm 1.597225 -0.000000 88.260939
LeftHand 23.719946 -0.000000 40.544136
LeftHandThumb1 -26.253704 0.000000 33.147579
RightShoulder -18.752589 -17.616172 -20.528359
RightArm 9.243759 -28.662703 87.272040
RightForeArm -16.988578 -0.000000 24.837030
RightHand 16.479146 -0.000000 9.189864
RightHandThumb1 -24.326973 -0.000000 -32.862282
LeftUpLeg 16.607320 3.350624 2.915666
LeftLeg 5.389261 -0.000000 -0.000000
LeftFoot -21.044039 14.470834 -16.432214
LeftToeBase 19.432116 -0.000000 -0.000000
RightUpLeg -71.110214 7.970856 17.358499
RightLeg 101.155970 -0.000000 -0.000000
RightFoot 19.094877 -32.045382 17.660048
RightToeBase 13.565830 -0.000000 -0.000000
1060
root 5.613838 32.744375 0.395896 -12.676565 -3.699992 -9.826691
Spine 11.388816 9.437441 8.869754
Head 8.299762 -9.867309 3.952128
LeftShoulder -13.503442 0.586975 29.418150
LeftArm -8.722554 31.013845 -89.098439
LeftForeArm 1.631177 0.000000 88.294224
LeftHand 23.614138 -0.000000 40.500251
LeftHandThumb1 -26.253704 0.000000 33.147579
RightShoulder -18.760881 -17.618812 -20.487802
RightArm 9.252297 -28.662697 87.273166
RightForeArm -16.949949 -0.000000 24.832358
RightHand 16.456816 -0.000000 8.956460
RightHandThumb1 -24.326973 -0.000000 -32.862282
LeftUpLeg 16.697307 3.336800 3.032577
LeftLeg 5.488457 -0.000000 -0.000000
LeftFoot -21.069766 14.380949 -16.449840
LeftToeBase 19.424755 -0.000000 -0.000000
RightUpLeg -71.211367 7.971780 17.266978
RightLeg 100.745328 -0.000000 -0.000000
RightFoot 19.700655 -31.382722 17.062670
RightToeBase 12.575782 -0.000000 -0.000000
